<svg width="799" height="799" viewBox="0 0 799 799" fill="none" xmlns="http://www.w3.org/2000/svg">
<path fill-rule="evenodd" clip-rule="evenodd" d="M390 1.30196C388.075 2.03596 355.675 25.682 318 53.848C280.325 82.015 214.431 131.259 171.569 163.28C128.707 195.301 91.807 222.87 89.569 224.544C82.594 229.762 81.773 237.905 87.735 242.745C90.289 244.819 91.51 244.99 103.75 244.995L117 245V324.504V404.008L127.976 396.754L138.951 389.5L138.976 309.595L139 229.69L134.965 225.852L130.93 222.014L197.61 172.257C234.285 144.891 293.979 100.31 330.265 73.189C367.31 45.5 396.828 24.104 397.582 24.393C398.996 24.936 415.083 36.878 493.473 95.577C519.858 115.335 543.214 132.737 545.374 134.25C550.144 137.59 554.722 137.793 558.486 134.832C563.471 130.911 564 128.006 564 104.532V83H577.458H590.916L591.208 123.796C591.471 160.606 591.67 164.851 593.244 167.251C594.203 168.714 610.29 181.444 628.994 195.539C647.697 209.635 663 221.504 663 221.915C663 222.326 661.84 223.283 660.423 224.041C659.005 224.8 657.317 226.339 656.673 227.46C655.795 228.987 655.374 269.443 655 388.177L654.5 546.854L652.404 549.677C651.251 551.23 649.226 553.056 647.904 553.735C646.015 554.706 592.092 554.974 396.327 554.985L147.153 555L144.13 552.456C142.467 551.057 140.85 549.103 140.536 548.115C140.089 546.706 138.077 546.046 131.233 545.065C126.43 544.377 121.488 543.582 120.25 543.298C118.168 542.822 118 543.127 118 547.381C118 556.719 123.582 566.598 131.86 571.91C142.072 578.463 122.985 578.046 399.562 577.76C636.395 577.515 650.753 577.401 655 575.739C663.061 572.586 669.147 567.116 673 559.563L676.5 552.702L676.762 398.926L677.025 245.151L691.097 244.825L705.169 244.5L708.085 241.234C711.43 237.486 712.015 231.895 709.445 228.225C708.59 227.004 689.127 211.986 666.195 194.852C643.263 177.717 622.362 161.924 619.75 159.756L615 155.814L614.996 112.157C614.993 71.207 614.876 68.309 613.114 65.42C609.452 59.414 607.143 59 577.333 59C553.097 59 550.131 59.181 547.017 60.851C540.182 64.517 539.557 66.326 539 84.055L538.5 99.972L475 52.414C440.075 26.256 409.755 3.94896 407.622 2.84196C402.683 0.277962 394.552 -0.432039 390 1.30196ZM320.24 142.169C318.369 143.506 306.813 159.068 293.138 178.663L269.297 212.825L256.398 199.889C246.691 190.152 242.581 186.704 239.787 185.948C232.297 183.921 226 189.277 226 197.673C226 201.246 227.074 202.52 246.277 221.723C268.314 243.76 268.949 244.161 275.5 240.161C277.215 239.114 283.686 230.869 290.606 220.914C297.265 211.336 310.202 192.752 319.356 179.616C334.671 157.64 336 155.385 336 151.382C336 142.567 327.022 137.318 320.24 142.169ZM464.81 143.005C444.171 145.528 425.756 156.232 413.053 173.09C400.325 189.982 395.332 204.077 394.839 224.515C394.626 233.332 394.555 233.573 391.612 235.515C389.957 236.607 387.455 239.74 386.052 242.479C383.843 246.788 383.5 248.739 383.5 256.979C383.5 265.556 383.807 267.145 386.595 273C389.694 279.511 396.515 287.394 400.009 288.503C401.113 288.853 402.511 291.023 403.445 293.835C406.289 302.398 413.99 314.183 421.904 322.083C430.583 330.747 439.973 336.649 451.5 340.686C458.929 343.288 460.57 343.484 474.5 343.438C488.657 343.391 489.959 343.219 497.665 340.367C509.018 336.168 516.104 331.722 525.271 323.047C533.759 315.015 541.337 303.881 544.445 294.874C545.955 290.499 547.15 288.942 550.871 286.5C567.549 275.555 571.276 249.229 557.821 237.416L554.324 234.346L553.67 222.923C552.749 206.829 550.856 199.064 545.035 187.5C529.417 156.473 497.852 138.967 464.81 143.005ZM502.969 190.115C507.737 198.439 518.077 207.94 527.362 212.529C534.783 216.197 534.902 216.317 535.941 221.159C536.52 223.859 537.286 229.878 537.644 234.534L538.295 243H541.513C550.903 243 556.071 256.025 550.91 266.685C548.559 271.542 542.962 276.63 539.019 277.496C536.902 277.961 536.153 278.978 535.141 282.761C531.923 294.796 522.637 309.069 513.07 316.69C505.956 322.356 496.083 327.4 487.913 329.542C478.398 332.038 463.705 331.134 454.468 327.486C435.55 320.013 421.065 305.055 414.328 286.035C411.896 279.171 411.183 278.106 408.317 277.07C398.753 273.612 392.755 256.835 398.004 248.225C400.061 244.852 403.403 243 407.436 243C409.568 243 409.793 242.455 410.429 235.75C411.159 228.044 414.501 212.397 415.894 210.161C416.582 209.056 418.402 209.032 426.29 210.025C450.414 213.061 478.637 204.588 492.917 190.02C495.988 186.888 498.725 184.266 499 184.193C499.275 184.119 501.061 186.784 502.969 190.115ZM438.495 237.414C430.291 245.618 438.311 261.185 448.055 255.97C453.377 253.122 454.482 242.271 449.942 237.438C446.863 234.161 441.759 234.15 438.495 237.414ZM499.674 237.976C496.087 242.239 495.46 246.234 497.67 250.74C501.205 257.949 508.248 258.921 512.027 252.723C518.45 242.189 507.314 228.896 499.674 237.976ZM184.5 253.908C180.895 255.451 178.966 258.618 177.985 264.606C177.453 267.848 174.744 286.7 171.964 306.5C169.184 326.3 164.934 354.65 162.519 369.5C160.103 384.35 157.812 398.75 157.427 401.5C156.476 408.298 155.348 411 153.463 411C150.458 411 140.576 416.35 136.299 420.292C130.162 425.949 127.597 430.379 128.972 432.948C130.295 435.419 128.25 434.942 163.422 440.988C195.91 446.573 195.627 446.588 194.627 439.295C193.529 431.283 185.204 418.828 178.554 415.249C176.652 414.225 176.717 413.485 181.422 382.351C193.503 302.412 198.631 263.649 197.643 259.714C196.51 255.2 189.113 251.932 184.5 253.908ZM293.5 266.898C282.48 269.902 276.129 272.741 267.303 278.608C258.122 284.711 252.429 290.687 244.433 302.617C232.056 321.084 227.162 336.893 223.071 371.631C221.53 384.713 217.91 398.023 212.535 410.366C206.773 423.6 206.94 425.192 214.912 432.993C224.366 442.244 240.488 449 253.109 449C256.73 449 258.412 449.843 265.066 454.99C275.429 463.007 286.009 468.573 295.498 470.999C305.994 473.684 320.948 473.699 331.364 471.035C340.988 468.573 354.517 461.594 363 454.715C369.302 449.604 369.774 449.409 378.5 448.319C389.749 446.912 398.578 443.415 407.19 436.951C414.411 431.532 418 426.788 418 422.66C418 421.229 416.829 417.457 415.398 414.279C408.657 399.304 405.901 388.62 403.04 366.355C401.919 357.635 399.897 346.382 398.547 341.349C388.285 303.101 366.61 277.795 335.5 267.741C326.382 264.794 302.943 264.324 293.5 266.898ZM444.655 280.829C442.186 283.557 442.63 286.359 446.294 291.172C450.517 296.72 460.154 301.749 469 303.022C481.639 304.841 495.194 300.131 503.071 291.182C507.376 286.291 507.787 284.568 505.443 281.223C503.054 277.811 499.927 278.479 495.057 283.442C483.303 295.418 463.648 295.182 453.958 282.947C450.496 278.575 447.344 277.858 444.655 280.829ZM590.5 301.955C587.555 303.146 585.933 305.3 578.416 318C570.193 331.893 569.098 334.758 569.053 342.5C568.912 367.074 602.981 374.283 614.25 352.064C619.434 341.843 617.943 335.48 605.462 314.566C598.199 302.394 595.349 299.993 590.5 301.955ZM337.337 324.311C343.945 335.588 358.189 346.956 373.547 353.211C378.664 355.295 381.002 356.81 381.457 358.335C381.813 359.526 382.357 366.125 382.667 373C384.496 413.566 365.117 445.272 331.254 457.118C323.024 459.997 309.198 460.682 301 458.617C280.997 453.578 262.987 439.058 253.038 419.951C246.176 406.771 243.805 396.837 243.264 379C243.005 370.475 243.204 361.925 243.708 360L244.622 356.5L255.561 355.801C285.048 353.917 309.719 339.847 325.795 315.744L330.301 308.988L332.501 314.402C333.711 317.379 335.887 321.838 337.337 324.311ZM277.495 368.414C270.995 374.914 274.673 388 283 388C288.784 388 293.3 380.317 291.569 373.42C290.578 369.471 286.57 366 283 366C281.066 366 279.006 366.903 277.495 368.414ZM340.229 366.669C338.016 367.56 336 372.735 336 377.527C336 387.778 347.267 391.896 351.837 383.316C354.45 378.41 352.366 368.122 348.455 366.621C346.578 365.901 342.073 365.927 340.229 366.669ZM491.455 372.455C489.907 374.002 489 376.052 489 378C489 379.948 489.907 381.998 491.455 383.545C493.8 385.891 494.468 386 506.455 386H519V394.5V403H513.648C502.919 403 498.609 409 499.187 423.127L499.5 430.754L494.293 433.477C487.639 436.957 480.599 444.487 477.18 451.782C474.511 457.476 474.499 457.611 474.189 484.446C473.919 507.797 474.103 511.98 475.562 515.801C477.884 521.881 482.556 526.884 488.493 529.649C493.428 531.947 493.986 531.98 527.5 531.98C561.041 531.98 561.568 531.949 566.521 529.642C572.062 527.062 577.139 522.468 579.779 517.644C581.291 514.882 581.5 511.101 581.5 486.5V458.5L578.391 451.938C574.817 444.397 567.575 436.644 560.695 432.994L556 430.503V421.202C556 415.015 555.512 410.958 554.544 409.085C552.672 405.465 547.428 403 541.599 403H537V394.5V386H543.577C549.513 386 550.439 385.715 553.077 383.077C554.685 381.469 556 379.185 556 378C556 376.815 554.685 374.531 553.077 372.923L550.154 370H522.031H493.909L491.455 372.455ZM285 412C282.11 414.89 282.521 417.464 286.589 421.967C293.752 429.896 307.475 434.09 319.26 431.953C328.917 430.202 337.46 425.228 341.197 419.181C343.264 415.837 343.264 415.83 341.283 413.167C338.378 409.261 336.078 409.44 331.009 413.966C320.182 423.634 303.073 423.25 293.563 413.126C290.159 409.504 287.806 409.194 285 412ZM537.212 434.541C537.824 441.921 540.262 445.048 546.911 446.982C553.157 448.798 559.291 453.69 562.015 459.029C563.628 462.191 564 464.92 564 473.598V484.276L557.494 483.61C551.419 482.987 542.17 480.792 519 474.472C513.775 473.047 505.563 471.616 500.75 471.293L492 470.704V466.82C492 458.068 498.43 450.32 507.871 447.696C515.598 445.547 517.314 443.435 517.823 435.443L518.233 429H527.493H536.752L537.212 434.541ZM115.708 458.144C109.744 469.972 100.849 483.132 92.111 493.06C86.423 499.522 85.458 503.7 88.962 506.7C91.426 508.809 108.574 516 111.141 516C113.324 516 117.332 510.03 126.5 493.127C131.035 484.766 132.988 482.06 134.5 482.048C139.437 482.006 139.367 482.883 132.854 502.46C127.138 519.638 126.749 521.343 128.282 522.465C129.882 523.634 154.098 528.057 158.691 528.018C159.896 528.008 161.184 527.511 161.554 526.913C162.124 525.99 165.917 497.079 165.979 493.183C165.993 492.28 166.709 492.083 168.25 492.557C169.488 492.937 170.657 493.387 170.849 493.556C171.041 493.726 172.022 501.348 173.029 510.495C174.081 520.053 175.412 527.792 176.159 528.692C177.273 530.034 179.316 530.159 190.479 529.566C208.527 528.609 208.385 528.773 204.178 513.797C199.365 496.668 197.213 485.706 196.081 472.562C195.465 465.417 194.54 460.144 193.776 459.429C192.575 458.304 137.363 448.337 126.467 447.278L121.435 446.788L115.708 458.144ZM641.764 627.996C633.739 630.412 628 637.572 628 645.168C628 656.205 643.203 663.469 654.677 657.914C660.002 655.337 662.833 651.501 663.613 645.806C664.737 637.608 659.522 630.568 650.5 628.104C645.964 626.865 645.537 626.86 641.764 627.996ZM2.03499 632.934C0.59999 635.615 0.59999 791.385 2.03499 794.066C2.98199 795.834 4.24999 796 16.835 796C26.208 796 30.983 795.617 31.8 794.8C32.677 793.923 33 785.978 33 765.3V737H43.838H54.675L71.481 764.75C80.723 780.013 88.966 793.288 89.798 794.25C91.112 795.771 93.263 796 106.221 796C121.011 796 125 795.265 125 792.537C125 791.771 116.18 778.032 105.401 762.005C94.621 745.978 85.959 732.749 86.151 732.608C86.343 732.467 89.2 730.862 92.5 729.041C100.882 724.416 107.221 718.88 111.475 712.472C128.269 687.171 118.318 650.974 90.912 637.672C78.704 631.746 72.514 631 35.577 631C4.46198 631 3.02599 631.083 2.03499 632.934ZM66.967 660.086C78.433 662.545 85.959 671.29 86.817 683.15C87.397 691.168 85.128 696.837 79.278 701.986C72.617 707.85 67.622 709 48.818 709H33V684V659H47.451C55.399 659 64.181 659.489 66.967 660.086ZM181.156 671.051C157.599 674.202 138.119 689.928 130.285 712.119C126.785 722.033 125.985 738.34 128.454 749.439C134.539 776.788 157.735 796.545 186.132 798.565C197.818 799.397 208.104 797.227 219.768 791.47C234.937 783.983 245.728 771.636 251.787 754.835C254.135 748.323 254.432 746.041 254.432 734.5C254.432 722.959 254.135 720.677 251.787 714.165C248.055 703.816 243.543 696.718 235.768 688.959C221.962 675.183 201.189 668.371 181.156 671.051ZM323.34 671.139C299.083 673.308 277.404 690.117 269.318 713.023C265.844 722.865 265.007 739.106 267.439 749.472C270.298 761.661 275.282 770.501 284.394 779.547C305.079 800.081 333.464 804.531 359.96 791.394C399.302 771.889 406.952 718.784 374.874 687.878C368.716 681.946 356.736 675.05 349.006 672.99C342.304 671.203 331.411 670.418 323.34 671.139ZM465.5 671.122C456.113 672.032 450.046 674.861 442.933 681.645L437 687.304V683.217C437 680.969 436.556 677.962 436.013 676.535L435.027 673.94L422.307 674.22C409.692 674.498 409.582 674.521 408.893 677C407.785 680.992 407.862 790.507 408.975 793.435L409.95 796H423.5C436.94 796 437.057 795.98 437.976 793.563C438.486 792.222 438.927 775.234 438.957 755.813C439.02 714.629 439.344 712.57 446.961 704.972C451.983 699.963 456.965 697.997 464.616 698.006C472.53 698.015 477.062 699.788 482.139 704.863C489.74 712.46 490 714.185 490 756.982C490 784.129 490.31 793.91 491.2 794.8C492.935 796.535 517.372 796.461 518.82 794.717C519.517 793.877 520.004 780.647 520.23 756.467C520.53 724.3 520.801 718.908 522.315 714.944C526.169 704.857 533.846 699.103 544.604 698.24C554.223 697.467 560.535 699.435 565.964 704.896C573.27 712.246 573.305 712.472 573.939 756.5L574.5 795.5L587.862 795.78C596.861 795.968 601.677 795.683 602.612 794.907C604.832 793.065 604.633 710.497 602.39 702.932C598.146 688.619 588.578 678.291 575.185 673.565C567.321 670.791 554.843 669.7 545.376 670.96C532.843 672.628 524.76 676.189 517.512 683.237L511.522 689.063L509.578 686.395C506.073 681.584 496.108 675.086 489.129 673.06C481.127 670.738 474.809 670.22 465.5 671.122ZM736 670.712C717.975 672.216 702.026 680.346 690.905 693.701C669.613 719.267 673.687 763.282 699.26 783.974C710.989 793.465 722.929 797.767 740 798.652C752.94 799.323 762.465 797.522 772.754 792.457C779.599 789.088 792 778.98 792 776.77C792 775.44 780.286 762.852 777.59 761.285C774.37 759.414 773.478 759.691 768.311 764.167C760.232 771.166 754.026 773.5 743.5 773.5C735.69 773.5 733.674 773.119 728.253 770.615C719.093 766.384 710.975 756.514 708.624 746.75L707.962 744H751.91C792.025 744 796.006 743.851 797.566 742.291C799.026 740.831 799.185 739.267 798.662 731.541C797.497 714.328 790.866 697.29 781.318 686.977C771.041 675.876 752.756 669.313 736 670.712ZM631.693 674.64C631.312 675.022 631 701.943 631 734.467C631 779.126 631.294 793.894 632.2 794.8C633.998 796.598 658.377 796.455 659.886 794.638C660.705 793.651 660.945 776.919 660.758 733.888L660.5 674.5L646.443 674.224C638.712 674.072 632.074 674.259 631.693 674.64ZM750.837 697.442C759.132 700.369 764.515 706.37 768.043 716.625L769.892 722H739.427H708.962L709.624 719.25C712.931 705.514 725.174 696.03 739.624 696.01C743.543 696.004 748.588 696.649 750.837 697.442ZM200.037 700.59C215.501 704.929 225.054 720.022 223.763 738.071C222.873 750.512 216.632 760.229 205.785 766.066C200.072 769.14 198.726 769.45 191 769.474C183.902 769.496 181.593 769.073 177 766.91C166.832 762.121 161.285 755.509 158.425 744.764C155.494 733.752 157.913 720.215 164.318 711.792C172.205 701.42 186.744 696.861 200.037 700.59ZM345.667 703.008C352.648 706.444 357.638 711.765 361.211 719.58C363.062 723.627 363.464 726.275 363.475 734.5C363.487 743.237 363.155 745.214 360.847 750.148C357.483 757.337 351.344 763.478 344.148 766.852C335.983 770.68 325.046 770.57 316.253 766.571C309.91 763.686 303.47 757.796 300.719 752.364C296.036 743.117 295.869 727.28 300.357 717.857C308.359 701.052 328.373 694.494 345.667 703.008Z" fill="black"/>
</svg>
